<svg width="260" height="260" viewBox="0 0 260 260" fill="none" xmlns="http://www.w3.org/2000/svg">
<path d="M226 130C226 183.019 183.019 226 130 226C76.9807 226 34 183.019 34 130C34 76.9807 76.9807 34 130 34C183.019 34 226 76.9807 226 130Z" fill="#F0F1F3"/>
<path d="M257.91 113.153C257.838 112.605 257.336 112.219 256.789 112.29C256.787 112.291 256.786 112.291 256.785 112.291C255.319 101.701 252.558 91.5252 248.667 81.9284C248.668 81.9279 248.669 81.9274 248.67 81.9269C249.181 81.7153 249.423 81.1303 249.211 80.6201C244.862 70.1322 239.169 60.3427 232.348 51.4663C232.012 51.0284 231.384 50.9462 230.946 51.2827C230.945 51.2835 230.944 51.2843 230.943 51.2851C224.471 42.9981 217.002 35.5286 208.715 29.0573C208.716 29.0562 208.716 29.0552 208.717 29.0542C209.054 28.6163 208.972 27.9885 208.534 27.6519C199.657 20.8308 189.868 15.1381 179.38 10.789C178.87 10.5774 178.285 10.8195 178.073 11.3296C178.073 11.3309 178.072 11.3321 178.072 11.3333C168.475 7.44181 158.299 4.6807 147.709 3.21511C147.709 3.21382 147.709 3.21253 147.71 3.21124C147.781 2.66359 147.395 2.16173 146.847 2.09029C141.333 1.37099 135.71 1 130 1C124.29 1 118.667 1.37099 113.153 2.09029C112.605 2.16173 112.219 2.66359 112.29 3.21124C112.291 3.21253 112.291 3.21382 112.291 3.21511C101.701 4.6807 91.5252 7.44182 81.9284 11.3333C81.9279 11.3321 81.9274 11.3309 81.9269 11.3297C81.7153 10.8195 81.1303 10.5774 80.6201 10.789C70.1322 15.1382 60.3427 20.8308 51.4663 27.652C51.0284 27.9885 50.9462 28.6163 51.2827 29.0542C51.2835 29.0552 51.2843 29.0563 51.2851 29.0573C42.9981 35.5286 35.5286 42.9981 29.0573 51.2851C29.0562 51.2843 29.0552 51.2835 29.0542 51.2827C28.6163 50.9462 27.9885 51.0284 27.6519 51.4663C20.8308 60.3427 15.1381 70.1322 10.789 80.6201C10.5774 81.1303 10.8195 81.7153 11.3296 81.9269C11.3309 81.9274 11.3321 81.9279 11.3333 81.9284C7.44181 91.5252 4.6807 101.701 3.21511 112.291C3.21382 112.291 3.21253 112.291 3.21124 112.29C2.66359 112.219 2.16173 112.605 2.09029 113.153C1.37099 118.667 1 124.29 1 130C1 135.71 1.37099 141.333 2.09029 146.847C2.16173 147.395 2.66359 147.781 3.21124 147.71C3.21253 147.709 3.21382 147.709 3.21511 147.709C4.6807 158.299 7.44182 168.475 11.3333 178.072C11.3321 178.072 11.3309 178.073 11.3297 178.073C10.8195 178.285 10.5774 178.87 10.789 179.38C15.1382 189.868 20.8308 199.657 27.652 208.534C27.9885 208.972 28.6163 209.054 29.0542 208.717C29.0552 208.716 29.0563 208.716 29.0573 208.715C35.5286 217.002 42.9981 224.471 51.2851 230.943C51.2843 230.944 51.2835 230.945 51.2827 230.946C50.9462 231.384 51.0284 232.012 51.4663 232.348C60.3427 239.169 70.1322 244.862 80.6201 249.211C81.1303 249.423 81.7153 249.181 81.9269 248.67C81.9274 248.669 81.9279 248.668 81.9284 248.667C91.5252 252.558 101.701 255.319 112.291 256.785C112.291 256.786 112.291 256.787 112.29 256.789C112.219 257.336 112.605 257.838 113.153 257.91C118.667 258.629 124.29 259 130 259C135.71 259 141.333 258.629 146.847 257.91C147.395 257.838 147.781 257.336 147.71 256.789C147.709 256.787 147.709 256.786 147.709 256.785C158.299 255.319 168.475 252.558 178.072 248.667C178.072 248.668 178.073 248.669 178.073 248.67C178.285 249.181 178.87 249.423 179.38 249.211C189.868 244.862 199.657 239.169 208.534 232.348C208.972 232.012 209.054 231.384 208.717 230.946C208.716 230.945 208.716 230.944 208.715 230.943C217.002 224.471 224.471 217.002 230.943 208.715C230.944 208.716 230.945 208.716 230.946 208.717C231.384 209.054 232.012 208.972 232.348 208.534C239.169 199.657 244.862 189.868 249.211 179.38C249.423 178.87 249.181 178.285 248.67 178.073C248.669 178.073 248.668 178.072 248.667 178.072C252.558 168.475 255.319 158.299 256.785 147.709C256.786 147.709 256.787 147.709 256.789 147.71C257.336 147.781 257.838 147.395 257.91 146.847C258.629 141.333 259 135.71 259 130C259 124.29 258.629 118.667 257.91 113.153Z" stroke="#838383" stroke-width="2" stroke-linecap="round" stroke-dasharray="40 40"/>
</svg>
