<svg width="26" height="22" viewBox="0 0 26 22" fill="none" xmlns="http://www.w3.org/2000/svg">
<path d="M26 10.989C26 4.9225 20.176 0 13 0C5.824 0 0 4.9225 0 10.989C0 14.3302 1.794 17.3415 4.602 19.3627C4.628 19.3848 4.654 19.3848 4.654 19.4067C4.888 19.5608 5.122 19.7148 5.382 19.8687C5.512 19.9347 5.616 20.0214 5.746 20.1094C7.89436 21.3419 10.4304 22.0005 13.026 22C15.6216 22.0005 18.1576 21.3419 20.306 20.1094C20.436 20.0434 20.54 19.9568 20.67 19.8894C20.904 19.7367 21.164 19.5828 21.398 19.4288C21.424 19.4067 21.45 19.4067 21.45 19.3848C24.206 17.3401 26 14.3302 26 10.989ZM13 20.6154C10.556 20.6154 8.32 19.9554 6.474 18.8568C6.5 18.6807 6.552 18.5061 6.604 18.3301C6.75892 17.8531 6.98614 17.3951 7.28 16.9675C7.566 16.5495 7.904 16.1755 8.32 15.8455C8.71 15.5155 9.178 15.2089 9.646 14.9669C10.14 14.7249 10.66 14.5489 11.232 14.4169C11.8084 14.2854 12.403 14.2193 13 14.2203C14.7723 14.2096 16.4795 14.7849 17.758 15.8235C18.356 16.3295 18.824 16.9235 19.162 17.6041C19.344 18.0001 19.474 18.4181 19.552 18.8568C17.6332 19.9982 15.3456 20.6122 13 20.6154ZM9.022 10.4404C8.79291 9.99655 8.67771 9.51665 8.684 9.03237C8.684 8.54975 8.788 8.06575 9.022 7.62575C9.256 7.18575 9.568 6.79112 9.958 6.46112C10.348 6.13112 10.816 5.8685 11.336 5.6705C11.856 5.4725 12.428 5.3845 13 5.3845C13.598 5.3845 14.144 5.4725 14.664 5.6705C15.184 5.8685 15.652 6.1325 16.042 6.46112C16.432 6.79112 16.744 7.18713 16.978 7.62575C17.212 8.06575 17.316 8.54975 17.316 9.03237C17.316 9.53837 17.212 10.0004 16.978 10.439C16.7522 10.8725 16.435 11.2676 16.042 11.605C15.6431 11.937 15.1762 12.205 14.664 12.3956C13.5896 12.7692 12.3844 12.7692 11.31 12.3956C10.7978 12.205 10.3309 11.937 9.932 11.605C9.53845 11.2725 9.22885 10.8758 9.022 10.439V10.4404ZM21.086 17.7361C21.086 17.6921 21.06 17.6701 21.06 17.6261C20.8043 16.9378 20.4274 16.2861 19.942 15.6929C19.4562 15.0953 18.8591 14.5682 18.174 14.1322C17.6508 13.7992 17.0837 13.5187 16.484 13.2963C16.7568 13.144 17.0096 12.9674 17.238 12.7696C17.6256 12.4458 17.9661 12.0839 18.252 11.6916C18.8278 10.8911 19.1252 9.96942 19.11 9.03237C19.118 8.33871 18.9588 7.65094 18.642 7.01113C18.3292 6.39463 17.879 5.83489 17.316 5.3625C16.7538 4.89504 16.0922 4.52181 15.366 4.2625C14.6086 3.99492 13.7947 3.86065 12.974 3.86787C12.1532 3.86108 11.3393 3.99582 10.582 4.26388C9.84954 4.52263 9.1863 4.90378 8.632 5.3845C8.07957 5.85968 7.63847 6.41908 7.332 7.03312C7.0152 7.67294 6.85596 8.36071 6.864 9.05437C6.864 9.53837 6.942 10.0004 7.098 10.439C7.254 10.901 7.462 11.319 7.748 11.7136C8.008 12.1096 8.372 12.4616 8.762 12.7916C8.996 12.9896 9.256 13.1642 9.542 13.3182C8.94048 13.5466 8.37317 13.8346 7.852 14.1763C7.176 14.6163 6.578 15.1429 6.084 15.7149C5.59367 16.3056 5.21638 16.958 4.966 17.6481C4.94 17.6921 4.94 17.7361 4.94 17.7581C2.886 15.9995 1.612 13.6263 1.612 10.989C1.612 5.6925 6.734 1.36263 13 1.36263C19.266 1.36263 24.388 5.6925 24.388 10.989C24.3846 13.5189 23.1974 15.9448 21.086 17.7361Z" fill="#F5C405"/>
</svg>
