<svg width="26" height="21" viewBox="0 0 26 21" fill="none" xmlns="http://www.w3.org/2000/svg">
<path d="M20.1045 21C19.8514 20.9994 19.5991 20.9765 19.352 20.9316C14.6464 20.1276 10.3113 18.2424 6.84561 15.4931C3.45389 12.7377 1.10155 9.22957 0.0732058 5.39304C-0.0480493 4.9149 -0.0182885 4.41902 0.159625 3.95313C0.337539 3.48723 0.657617 3.067 1.08907 2.73285L4.09902 0.339911C4.25276 0.219821 4.43543 0.127859 4.63511 0.0700266C4.83479 0.0121938 5.04699 -0.0102096 5.25786 0.00427847C5.4765 0.0231192 5.6875 0.0812958 5.876 0.174717C6.06451 0.268138 6.22595 0.394535 6.34897 0.54502L10.1114 5.13821C10.2525 5.31643 10.3206 5.52736 10.3057 5.73995C10.2908 5.95254 10.1937 6.15556 10.0286 6.31914L8.13989 8.18377C8.89212 9.5589 9.95741 10.8017 11.2778 11.8446C12.5896 12.9254 14.1401 13.7883 15.8454 14.3868L18.1856 12.8515C18.3822 12.7232 18.6214 12.6474 18.8714 12.6341C19.1214 12.6207 19.3704 12.6706 19.5853 12.777L25.2666 15.8101C25.4615 15.9062 25.6276 16.0376 25.7524 16.1943C25.8772 16.351 25.9574 16.529 25.9871 16.7149C26.0168 16.9009 25.9951 17.09 25.9238 17.268C25.8524 17.4461 25.7332 17.6085 25.5751 17.7431L22.6404 20.1422C22.307 20.4162 21.9113 20.6331 21.4761 20.7803C21.0409 20.9275 20.5748 21.0021 20.1045 21ZM5.13746 1.23493L2.1275 3.62787C1.88479 3.81467 1.70512 4.05044 1.60617 4.31199C1.50721 4.57353 1.49238 4.85185 1.56313 5.11957C2.51934 8.71962 4.71736 12.0139 7.89157 14.6043C11.153 17.1909 15.2326 18.964 19.6605 19.7196C19.9957 19.7775 20.343 19.7657 20.6713 19.6855C20.9996 19.6052 21.2987 19.4589 21.5417 19.2596L24.4764 16.8605L18.9908 13.933L16.4775 15.5863C16.3813 15.6492 16.2679 15.6917 16.1472 15.7102C16.0265 15.7286 15.9023 15.7223 15.7852 15.692C13.6983 15.0569 11.8071 14.0488 10.2469 12.7397C8.63304 11.4949 7.38035 9.96511 6.58224 8.26457C6.54847 8.16162 6.54735 8.05322 6.57898 7.94981C6.61061 7.8464 6.67393 7.75145 6.76284 7.6741L8.79456 5.66652L5.13746 1.23493Z" fill="#F5C405"/>
</svg>
