<svg width="14" height="21" viewBox="0 0 14 21" fill="none" xmlns="http://www.w3.org/2000/svg">
<path d="M7.229 3.64294L8.141 5.49594L10.185 5.79094C10.395 5.82094 10.478 6.07894 10.327 6.22594L8.848 7.66594L9.198 9.70194C9.20609 9.74886 9.20088 9.79709 9.18297 9.8412C9.16506 9.88531 9.13516 9.92352 9.09666 9.95151C9.05815 9.9795 9.01258 9.99616 8.9651 9.99959C8.91763 10.003 8.87013 9.9931 8.828 9.97094L7 9.00894L5.173 9.97094C5.13087 9.9931 5.08338 10.003 5.0359 9.99959C4.98842 9.99616 4.94285 9.9795 4.90434 9.95151C4.86584 9.92352 4.83594 9.88531 4.81803 9.8412C4.80012 9.79709 4.79492 9.74886 4.803 9.70194L5.153 7.66694L3.673 6.22694C3.63861 6.19373 3.61424 6.15151 3.60269 6.10512C3.59114 6.05872 3.59287 6.01001 3.60767 5.96454C3.62248 5.91908 3.64977 5.87869 3.68643 5.848C3.72309 5.8173 3.76764 5.79753 3.815 5.79094L5.859 5.49594L6.771 3.64294C6.79199 3.6001 6.82458 3.564 6.86506 3.53875C6.90554 3.51351 6.95229 3.50012 7 3.50012C7.04771 3.50012 7.09446 3.51351 7.13495 3.53875C7.17543 3.564 7.20801 3.6001 7.229 3.64294V3.64294Z" fill="#302F77"/>
<path d="M14 7.00098C14.0002 5.8528 13.7179 4.72222 13.1781 3.70886C12.6382 2.6955 11.8574 1.83049 10.9044 1.19006C9.95146 0.549638 8.85558 0.15346 7.71338 0.0364477C6.57118 -0.0805651 5.41774 0.0851803 4.3547 0.519076C3.29167 0.952972 2.35168 1.64169 1.6176 2.52455C0.883507 3.4074 0.377856 4.45727 0.145206 5.58162C-0.0874438 6.70598 -0.0399481 7.87031 0.283507 8.97198C0.606962 10.0737 1.19644 11.0789 2 11.899V19.251L2.008 19.356C2.02596 19.4832 2.07632 19.6037 2.15425 19.7059C2.23217 19.8081 2.33505 19.8886 2.45301 19.9396C2.57097 19.9906 2.70005 20.0104 2.82788 19.9972C2.95571 19.9839 3.07799 19.9381 3.183 19.864L6.999 17.177L10.818 19.865L10.907 19.919C11.0214 19.9776 11.1489 20.0058 11.2773 20.001C11.4057 19.9961 11.5307 19.9583 11.6404 19.8913C11.75 19.8242 11.8406 19.7301 11.9034 19.618C11.9662 19.5059 11.9991 19.3795 11.999 19.251L12.001 11.899C13.2845 10.592 14.0025 8.83276 14 7.00098V7.00098ZM10.5 13.065V17.806L7.43 15.646L7.33 15.586C7.20915 15.5266 7.07453 15.5008 6.94027 15.5113C6.80601 15.5219 6.67708 15.5684 6.567 15.646L3.501 17.806V13.065C4.56445 13.6799 5.77156 14.0028 7 14.001C8.275 14.001 9.47 13.661 10.5 13.065ZM1.5 7.00098C1.5 5.54229 2.07946 4.14334 3.11091 3.11189C4.14236 2.08044 5.54131 1.50098 7 1.50098C8.45869 1.50098 9.85764 2.08044 10.8891 3.11189C11.9205 4.14334 12.5 5.54229 12.5 7.00098C12.5 8.45967 11.9205 9.85862 10.8891 10.8901C9.85764 11.9215 8.45869 12.501 7 12.501C5.54131 12.501 4.14236 11.9215 3.11091 10.8901C2.07946 9.85862 1.5 8.45967 1.5 7.00098V7.00098Z" fill="#302F77"/>
</svg>
