<svg width="13" height="11" viewBox="0 0 13 11" fill="none" xmlns="http://www.w3.org/2000/svg">
<path d="M11.5 2H1.5C1.36739 2 1.24021 1.94732 1.14645 1.85355C1.05268 1.75979 1 1.63261 1 1.5C1 1.36739 1.05268 1.24021 1.14645 1.14645C1.24021 1.05268 1.36739 1 1.5 1H10C10.1326 1 10.2598 0.947321 10.3536 0.853553C10.4473 0.759785 10.5 0.632608 10.5 0.5C10.5 0.367392 10.4473 0.240215 10.3536 0.146447C10.2598 0.0526785 10.1326 0 10 0H1.5C1.10231 0.000446645 0.721041 0.158625 0.439833 0.439833C0.158625 0.721041 0.000446645 1.10231 0 1.5V9.5C0.000446645 9.89769 0.158625 10.279 0.439833 10.5602C0.721041 10.8414 1.10231 10.9996 1.5 11H11.5C11.7651 10.9997 12.0193 10.8942 12.2068 10.7068C12.3942 10.5193 12.4997 10.2651 12.5 10V3C12.4997 2.73487 12.3942 2.48069 12.2068 2.29322C12.0193 2.10575 11.7651 2.0003 11.5 2V2ZM11.5 10H1.5C1.36744 9.99983 1.24036 9.9471 1.14663 9.85337C1.0529 9.75964 1.00017 9.63256 1 9.5V2.91431C1.16056 2.97119 1.32967 3.00017 1.5 3H11.5V10ZM8.5 6.5C8.5 6.35166 8.54399 6.20666 8.6264 6.08332C8.70881 5.95999 8.82594 5.86386 8.96299 5.80709C9.10003 5.75033 9.25083 5.73547 9.39632 5.76441C9.5418 5.79335 9.67544 5.86478 9.78033 5.96967C9.88522 6.07456 9.95665 6.2082 9.98559 6.35368C10.0145 6.49917 9.99967 6.64997 9.94291 6.78701C9.88614 6.92406 9.79001 7.04119 9.66668 7.1236C9.54334 7.20601 9.39834 7.25 9.25 7.25C9.05109 7.25 8.86032 7.17098 8.71967 7.03033C8.57902 6.88968 8.5 6.69891 8.5 6.5Z" fill="#302F77"/>
</svg>
